<svg width="334" height="531" viewBox="0 0 334 531" fill="none" xmlns="http://www.w3.org/2000/svg">
<path d="M232.085 470.319C232.944 468.893 233.954 467.57 235.098 466.375C235.57 465.872 236.068 465.399 236.581 464.938C239.7 462.086 243.504 460.138 247.599 459.296C251.694 458.454 255.934 458.748 259.883 460.147C263.831 461.546 267.345 464 270.064 467.257C272.783 470.513 274.608 474.455 275.353 478.677C278.799 465.586 269.828 452.691 260.809 442.787C251.785 432.886 241.471 422.024 241.523 408.457C241.548 400.907 245.143 394.172 250.571 389.179C250.739 389.028 250.906 388.877 251.077 388.731C257.638 382.954 266.079 379.933 274.714 380.27C290.756 381.152 304.763 392.227 314.49 405.364C330.148 426.501 337.009 456.172 326.048 480.234C316.406 501.396 295.843 513.963 274.857 524.066C271.926 525.477 269.002 526.845 266.083 528.171C266.064 528.177 266.042 528.191 266.023 528.196C265.882 528.259 265.742 528.323 265.61 528.388C265.008 528.661 264.405 528.934 263.808 529.204L264.085 529.39L264.948 529.964C264.648 529.777 264.352 529.597 264.053 529.411C263.964 529.354 263.87 529.301 263.781 529.245C253.474 522.892 243.023 516.171 235.903 506.253C228.518 495.955 225.548 481.205 232.085 470.319Z" fill="#F1F1F1"/>
<path d="M300.855 446.404C303.137 451.737 304.651 457.384 305.347 463.166C305.894 468.322 305.688 473.533 304.736 478.626C302.689 489.092 298.225 498.901 291.72 507.226C286.812 513.547 281.146 519.205 274.857 524.066C271.926 525.477 269.002 526.846 266.083 528.172C266.064 528.177 266.042 528.191 266.023 528.196C265.883 528.259 265.742 528.323 265.61 528.388C265.008 528.661 264.405 528.934 263.808 529.204L264.085 529.39L264.948 529.964C264.649 529.778 264.353 529.597 264.053 529.411C263.965 529.354 263.87 529.302 263.782 529.245C266.05 521.095 266.383 512.505 264.754 504.195C263.125 495.885 259.58 488.097 254.417 481.484C249.227 474.954 242.607 469.777 235.099 466.375C235.57 465.872 236.068 465.399 236.581 464.938C239.473 466.302 242.242 467.926 244.856 469.792C254.204 476.428 261.223 485.98 264.875 497.034C268.135 507.062 268.542 517.837 266.049 528.094C266.566 527.746 267.085 527.39 267.59 527.035C277.192 520.384 286.042 512.395 292.708 502.599C298.457 494.32 302.136 484.715 303.421 474.632C304.699 463.617 302.016 452.785 297.228 442.956C291.941 432.441 285.28 422.718 277.428 414.057C269.542 405.157 260.626 397.282 250.877 390.607C250.658 390.455 250.504 390.222 250.447 389.956C250.39 389.69 250.434 389.412 250.571 389.179C250.676 388.967 250.858 388.806 251.077 388.731C251.189 388.702 251.305 388.699 251.418 388.722C251.531 388.746 251.637 388.795 251.729 388.866C252.932 389.691 254.125 390.523 255.304 391.38C265.121 398.521 274.037 406.886 281.846 416.285C289.392 425.344 296.259 435.409 300.855 446.404Z" fill="white"/>
<path d="M90.7058 31.6541C98.9818 31.6541 105.691 24.7626 105.691 16.2615C105.691 7.76031 98.9818 0.868774 90.7058 0.868774C82.4298 0.868774 75.7207 7.76031 75.7207 16.2615C75.7207 24.7626 82.4298 31.6541 90.7058 31.6541Z" fill="#F1F1F1"/>
<path d="M277.036 237.644C282.082 237.644 286.173 233.443 286.173 228.26C286.173 223.077 282.082 218.875 277.036 218.875C271.991 218.875 267.9 223.077 267.9 228.26C267.9 233.443 271.991 237.644 277.036 237.644Z" fill="#F1F1F1"/>
<path d="M9.65662 263.393C14.7024 263.393 18.7927 259.192 18.7927 254.009C18.7927 248.826 14.7024 244.624 9.65662 244.624C4.61088 244.624 0.520508 248.826 0.520508 254.009C0.520508 259.192 4.61088 263.393 9.65662 263.393Z" fill="#F1F1F1"/>
<path d="M14.8151 531H333.165C333.387 531 333.599 530.91 333.756 530.749C333.912 530.588 334 530.369 334 530.142C334 529.914 333.912 529.696 333.756 529.535C333.599 529.374 333.387 529.283 333.165 529.283H14.8151C14.5935 529.283 14.3809 529.374 14.2242 529.535C14.0675 529.696 13.9795 529.914 13.9795 530.142C13.9795 530.369 14.0675 530.588 14.2242 530.749C14.3809 530.91 14.5935 531 14.8151 531Z" fill="#CBCBCB"/>
<path d="M298.033 80.9411C298.451 77.8926 297.765 74.7924 296.107 72.2281C294.448 69.6638 291.932 67.8135 289.034 67.0278C286.136 66.2421 283.058 66.5757 280.384 67.9653C277.709 69.3548 275.624 71.7039 274.523 74.5673L248.689 104.989L256.269 126.735L282.25 91.1888C283.945 91.7467 285.739 91.9159 287.504 91.6846C289.27 91.4533 290.965 90.827 292.47 89.85C293.975 88.873 295.253 87.5689 296.214 86.0297C297.175 84.4905 297.796 82.7535 298.033 80.9411Z" fill="#FFB7B7"/>
<path d="M190.95 199.312L276.703 105.304L265.136 86.4145L157.58 179.852L190.95 199.312Z" fill="#3F3D56"/>
<path d="M171.811 142.193C188.424 142.193 201.891 128.359 201.891 111.295C201.891 94.2299 188.424 80.3961 171.811 80.3961C155.198 80.3961 141.73 94.2299 141.73 111.295C141.73 128.359 155.198 142.193 171.811 142.193Z" fill="#2F2E41"/>
<path d="M174.229 93.8397C180.701 87.0974 188.534 81.8944 197.176 78.5971C202.723 76.4862 208.76 75.182 214.56 76.3808C220.359 77.5796 225.843 81.7006 227.461 87.5453C228.784 92.3246 227.418 97.4704 225.365 101.969C223.312 106.468 220.571 110.64 218.91 115.307C217.216 120.069 216.707 125.19 217.428 130.205C218.15 135.221 220.079 139.972 223.041 144.027C226.004 148.082 229.905 151.313 234.391 153.427C238.877 155.54 243.806 156.469 248.731 156.13C243.033 156.914 237.781 159.665 232.211 161.129C226.642 162.593 220.068 162.494 215.929 158.395C211.55 154.059 211.462 147.008 211.674 140.764C211.989 131.481 212.304 122.199 212.618 112.916C212.779 108.182 212.916 103.297 211.254 98.8785C209.592 94.4601 205.642 90.5911 201.031 90.6313C197.536 90.6618 194.443 92.8365 191.641 94.9811C188.838 97.1258 185.871 99.414 182.39 99.733C178.909 100.052 174.935 97.4058 175.195 93.8258L174.229 93.8397Z" fill="#2F2E41"/>
<path d="M57.5637 318.764C54.6759 319.588 51.5942 319.295 48.9024 317.941C46.2107 316.587 44.096 314.266 42.959 311.417C41.8221 308.569 41.7419 305.391 42.7336 302.486C43.7253 299.58 45.72 297.15 48.3398 295.654L74.3262 265.371L96.3057 270.248L65.3921 301.351C66.152 303.005 66.5497 304.809 66.5572 306.638C66.5647 308.467 66.1818 310.275 65.4354 311.935C64.6891 313.595 63.5974 315.067 62.2374 316.247C60.8773 317.426 59.282 318.286 57.5637 318.764H57.5637Z" fill="#FFB7B7"/>
<path d="M143.059 210.346L78.2906 293.858L58.5479 284.547L134.676 162.803L143.059 210.346Z" fill="#3F3D56"/>
<path d="M91.3796 462.518L75.9434 462.269L77.8 516.312H91.377L91.3796 462.518Z" fill="#FFB7B7"/>
<path d="M94.8408 511.759L68.1018 511.758H68.1007C63.5815 511.758 59.2474 513.602 56.0518 516.885C52.8563 520.167 51.0609 524.619 51.0605 529.261V529.83L94.84 529.832L94.8408 511.759Z" fill="#2F2E41"/>
<path d="M193.583 448.184L176.721 459.304L210.451 500.987L221.876 493.452L193.583 448.184Z" fill="#FFB7B7"/>
<path d="M222.396 487.698L199.895 502.537L199.894 502.538C196.091 505.046 193.414 509.003 192.452 513.539C191.489 518.074 192.32 522.817 194.761 526.723L195.06 527.202L231.901 502.907L222.396 487.698Z" fill="#2F2E41"/>
<path d="M199.591 283.159C199.591 283.159 162.125 155.336 150.084 153.609C138.043 151.881 118.643 186.407 118.643 186.407C93.4904 219.372 67.5537 326.155 67.5537 326.155C67.5537 326.155 110.791 328.934 142.398 346.207C174.005 363.481 211.305 345.333 211.305 345.333L199.591 283.159Z" fill="#3F3D56"/>
<path opacity="0.1" d="M199.591 283.159C199.591 283.159 162.125 155.336 150.084 153.609C138.043 151.881 123.571 186.757 123.571 186.757C111.037 239.971 67.5537 326.155 67.5537 326.155C67.5537 326.155 110.791 328.934 142.398 346.207C174.005 363.481 211.305 345.333 211.305 345.333L199.591 283.159Z" fill="black"/>
<path d="M168.852 244.915V309.146L176.211 402.188L212.976 472.568L195.429 485.443L145.295 418.496L125.466 352.022L94.3255 499.175L70.9297 497.459L87.1781 293.433L118.011 236.005L168.852 244.915Z" fill="#2F2E41"/>
<path d="M131.077 182.79C119.379 194.806 130.241 207.681 130.241 207.681L116.872 238.579L169.513 253.17L187.909 168.733L175.375 155C150.308 154.142 150.295 153.608 150.295 153.608C145.903 158.023 131.077 182.79 131.077 182.79Z" fill="#E77D2C"/>
<path d="M190.029 159.985C187.638 158.172 184.921 156.865 182.035 156.138C179.149 155.412 176.151 155.281 173.215 155.753C170.279 156.225 167.463 157.291 164.931 158.888C162.399 160.486 160.201 162.584 158.464 165.06C145.23 183.988 132.994 214.551 149.853 252.668C176.925 313.872 200.483 345.204 210.06 345.201C210.478 345.205 210.894 345.137 211.291 345.002C217.186 342.948 225.709 332.701 227.253 323.672C227.805 320.44 227.674 315.938 223.911 312.846C213.102 303.966 193.699 276.316 187.646 239.923C184.301 219.813 190.788 201.495 196.818 189.67C199.366 184.777 200.111 179.104 198.917 173.693C197.724 168.281 194.672 163.493 190.32 160.205V160.205L190.029 159.985Z" fill="#3F3D56"/>
<path d="M173.357 139.158C184.088 133.132 188.031 119.313 182.166 108.29C176.3 97.2681 162.846 93.2173 152.116 99.2426C141.385 105.268 137.442 119.088 143.307 130.11C149.173 141.132 162.627 145.183 173.357 139.158Z" fill="#FFB7B7"/>
<path d="M131.597 117.48H163.57L163.898 112.765L165.537 117.48H170.461L171.11 108.135L174.359 117.48H183.886V117.017C183.878 110.511 181.359 104.273 176.88 99.6728C172.402 95.0722 166.329 92.4843 159.995 92.477H155.487C149.153 92.4843 143.081 95.0722 138.602 99.6728C134.123 104.273 131.604 110.511 131.597 117.017V117.48Z" fill="#2F2E41"/>
<path d="M179.056 134.429L192.7 129.882V95.8454H166.928L167.566 96.4998C176.443 105.607 186.317 137.918 179.056 134.429Z" fill="#2F2E41"/>
</svg>
