<svg width="321" height="466" viewBox="0 0 321 466" fill="none" xmlns="http://www.w3.org/2000/svg">
<path d="M272.903 110.532H270.415V40.5207C270.415 35.1994 269.394 29.9303 267.412 25.0141C265.43 20.0979 262.524 15.6309 258.861 11.8682C255.198 8.10555 250.849 5.12082 246.063 3.08446C241.277 1.04811 236.148 4.50858e-06 230.967 0H86.5668C76.1046 -2.0487e-05 66.071 4.26908 58.6731 11.8682C51.2752 19.4672 47.1192 29.7738 47.1191 40.5205V424.608C47.1191 429.929 48.1395 435.198 50.1219 440.115C52.1043 445.031 55.01 449.498 58.673 453.26C62.3361 457.023 66.6848 460.008 71.4707 462.044C76.2567 464.08 81.3863 465.129 86.5667 465.129H230.967C241.429 465.129 251.463 460.86 258.861 453.26C266.259 445.661 270.415 435.355 270.415 424.608V160.367H272.903V110.532Z" fill="#3F3D56"/>
<path d="M232.559 10.5421H213.71C214.576 12.725 214.907 15.0935 214.673 17.4387C214.439 19.784 213.647 22.0341 212.367 23.9909C211.086 25.9476 209.357 27.5509 207.332 28.6596C205.306 29.7682 203.047 30.3482 200.751 30.3484H118.026C115.731 30.3482 113.471 29.7682 111.446 28.6596C109.42 27.5509 107.691 25.9476 106.411 23.9909C105.131 22.0341 104.339 19.784 104.104 17.4387C103.87 15.0935 104.201 12.725 105.068 10.5421H87.4629C83.5943 10.542 79.7636 11.3248 76.1895 12.8455C72.6153 14.3662 69.3678 16.5952 66.6323 19.4051C63.8967 22.215 61.7268 25.5509 60.2463 29.2223C58.7659 32.8936 58.0039 36.8285 58.0039 40.8024V424.326C58.0039 428.3 58.7659 432.235 60.2463 435.906C61.7268 439.578 63.8967 442.914 66.6322 445.724C69.3678 448.533 72.6153 450.762 76.1894 452.283C79.7636 453.804 83.5943 454.587 87.4629 454.587H232.559C236.427 454.587 240.258 453.804 243.832 452.283C247.406 450.762 250.654 448.533 253.389 445.724C256.125 442.914 258.295 439.578 259.775 435.906C261.256 432.235 262.018 428.3 262.018 424.326V40.8024C262.018 36.8285 261.256 32.8936 259.775 29.2223C258.295 25.5509 256.125 22.215 253.389 19.4051C250.654 16.5952 247.406 14.3662 243.832 12.8455C240.258 11.3248 236.427 10.542 232.559 10.5421Z" fill="white"/>
<path d="M319.185 465.195H0.835564C0.613958 465.195 0.401429 465.104 0.24473 464.943C0.0880317 464.782 0 464.564 0 464.337C0 464.109 0.0880317 463.891 0.24473 463.73C0.401429 463.569 0.613958 463.478 0.835564 463.478H319.185C319.407 463.478 319.619 463.569 319.776 463.73C319.933 463.891 320.021 464.109 320.021 464.337C320.021 464.564 319.933 464.782 319.776 464.943C319.619 465.104 319.407 465.195 319.185 465.195Z" fill="#CBCBCB"/>
<path d="M160.01 296.695C198.98 296.695 230.571 264.244 230.571 224.215C230.571 184.186 198.98 151.735 160.01 151.735C121.041 151.735 89.4502 184.186 89.4502 224.215C89.4502 264.244 121.041 296.695 160.01 296.695Z" fill="#E77D2C"/>
<path d="M153.018 251.864C151.431 251.867 149.885 251.339 148.615 250.361L148.537 250.3L131.954 237.27C131.186 236.665 130.541 235.911 130.057 235.05C129.573 234.19 129.259 233.239 129.132 232.254C129.005 231.268 129.069 230.267 129.319 229.307C129.569 228.346 130 227.446 130.589 226.657C131.178 225.868 131.912 225.206 132.75 224.709C133.588 224.211 134.513 223.888 135.473 223.758C136.432 223.628 137.407 223.693 138.342 223.95C139.277 224.207 140.153 224.65 140.921 225.255L151.662 233.716L177.043 199.703C177.632 198.914 178.366 198.252 179.203 197.755C180.041 197.258 180.965 196.935 181.924 196.805C182.883 196.675 183.858 196.74 184.793 196.997C185.727 197.253 186.603 197.697 187.371 198.301L187.373 198.303L187.215 198.528L187.377 198.303C188.926 199.526 189.939 201.33 190.195 203.319C190.45 205.308 189.927 207.32 188.74 208.914L158.886 248.903C158.195 249.824 157.307 250.57 156.291 251.082C155.274 251.594 154.157 251.858 153.024 251.855L153.018 251.864Z" fill="white"/>
</svg>
